<svg width="536" height="290" viewBox="0 0 536 290" fill="none" xmlns="http://www.w3.org/2000/svg">
<rect width="536" height="290" fill="#E5E5E5"/>
<rect width="536" height="290" fill="white"/>
<rect x="14.5" y="9.5" width="217" height="205.667" fill="#C5C5C5" fill-opacity="0.26" stroke="black"/>
<rect x="102.238" y="205.667" width="40.875" height="19.3333" fill="#B0B0B0" fill-opacity="0.7" stroke="black" stroke-width="0.2"/>
<rect x="112" y="180" width="21" height="26" fill="#6FCF97" fill-opacity="0.7" stroke="black" stroke-width="0.2"/>
<rect x="63.3095" y="157" width="119.381" height="22.6667" fill="#6FCF97" fill-opacity="0.7" stroke="black"/>
<rect x="120.405" y="133.667" width="5.19048" height="23.3333" fill="url(#paint0_linear_0_1)" stroke="black" stroke-width="0.2"/>
<rect x="74.8393" y="19.5" width="96.3214" height="103.667" fill="#FCFF7E" fill-opacity="0.7" stroke="black"/>
<path d="M102.238 114.333H143.113V133.667H102.238V114.333Z" fill="#2F80ED" fill-opacity="0.7" stroke="black" stroke-width="0.2"/>
<path d="M117.619 218.068C117.118 218.068 116.71 217.904 116.396 217.576C116.081 217.246 115.924 216.805 115.924 216.253V216.137C115.924 215.77 115.993 215.443 116.132 215.156C116.274 214.867 116.47 214.641 116.72 214.479C116.973 214.315 117.247 214.233 117.541 214.233C118.021 214.233 118.395 214.392 118.662 214.708C118.928 215.025 119.062 215.479 119.062 216.069V216.332H116.556C116.565 216.697 116.671 216.992 116.874 217.217C117.079 217.441 117.339 217.552 117.653 217.552C117.877 217.552 118.066 217.507 118.221 217.416C118.376 217.324 118.511 217.204 118.627 217.053L119.014 217.354C118.704 217.83 118.239 218.068 117.619 218.068ZM117.541 214.753C117.285 214.753 117.071 214.846 116.898 215.033C116.725 215.218 116.618 215.478 116.577 215.812H118.429V215.765C118.411 215.443 118.324 215.195 118.169 215.02C118.014 214.842 117.805 214.753 117.541 214.753ZM120.654 213.406V214.302H121.345V214.791H120.654V217.084C120.654 217.232 120.685 217.344 120.747 217.419C120.808 217.492 120.913 217.528 121.061 217.528C121.134 217.528 121.234 217.515 121.362 217.487V218C121.195 218.046 121.034 218.068 120.876 218.068C120.594 218.068 120.381 217.983 120.237 217.812C120.094 217.641 120.022 217.398 120.022 217.084V214.791H119.349V214.302H120.022V213.406H120.654ZM122.719 214.75C122.999 214.405 123.364 214.233 123.812 214.233C124.594 214.233 124.988 214.674 124.995 215.556V218H124.363V215.553C124.361 215.286 124.299 215.089 124.178 214.961C124.06 214.834 123.874 214.77 123.621 214.77C123.416 214.77 123.236 214.825 123.081 214.934C122.926 215.043 122.805 215.187 122.719 215.365V218H122.086V212.75H122.719V214.75ZM128.998 215.877C128.998 216.618 128.871 217.168 128.618 217.528C128.365 217.888 127.97 218.068 127.432 218.068C126.901 218.068 126.508 217.893 126.253 217.542C125.998 217.189 125.866 216.662 125.856 215.963V215.119C125.856 214.387 125.983 213.844 126.236 213.488C126.489 213.133 126.885 212.955 127.425 212.955C127.961 212.955 128.355 213.127 128.608 213.471C128.861 213.813 128.991 214.342 128.998 215.057V215.877ZM128.365 215.013C128.365 214.477 128.29 214.088 128.14 213.844C127.989 213.598 127.751 213.475 127.425 213.475C127.102 213.475 126.866 213.597 126.718 213.84C126.57 214.084 126.493 214.459 126.489 214.965V215.977C126.489 216.514 126.566 216.912 126.721 217.169C126.878 217.425 127.115 217.552 127.432 217.552C127.744 217.552 127.976 217.431 128.126 217.19C128.279 216.948 128.358 216.568 128.365 216.048V215.013Z" fill="black"/>
<path d="M114.116 195.142L115.032 192.302H115.678L114.352 196H113.87L112.53 192.302H113.176L114.116 195.142ZM117.527 193.652L118.347 192.302H119.085L117.875 194.13L119.123 196H118.392L117.537 194.616L116.683 196H115.948L117.195 194.13L115.985 192.302H116.717L117.527 193.652ZM120.446 196H119.813V190.75H120.446V196ZM123.744 196C123.708 195.927 123.678 195.797 123.655 195.61C123.361 195.916 123.01 196.068 122.603 196.068C122.238 196.068 121.938 195.966 121.704 195.761C121.471 195.553 121.355 195.291 121.355 194.975C121.355 194.59 121.501 194.291 121.792 194.079C122.086 193.865 122.499 193.758 123.03 193.758H123.645V193.467C123.645 193.246 123.579 193.071 123.447 192.941C123.315 192.809 123.12 192.743 122.862 192.743C122.637 192.743 122.448 192.8 122.295 192.914C122.142 193.028 122.066 193.165 122.066 193.327H121.43C121.43 193.143 121.495 192.965 121.625 192.794C121.757 192.621 121.935 192.484 122.158 192.384C122.384 192.284 122.631 192.233 122.9 192.233C123.326 192.233 123.66 192.34 123.901 192.555C124.143 192.767 124.268 193.059 124.277 193.433V195.135C124.277 195.475 124.321 195.745 124.407 195.945V196H123.744ZM122.695 195.518C122.893 195.518 123.081 195.467 123.259 195.364C123.437 195.262 123.565 195.128 123.645 194.964V194.206H123.149C122.375 194.206 121.987 194.432 121.987 194.886C121.987 195.084 122.053 195.239 122.186 195.351C122.318 195.462 122.487 195.518 122.695 195.518ZM125.867 192.302L125.887 192.767C126.17 192.411 126.539 192.233 126.995 192.233C127.776 192.233 128.17 192.674 128.177 193.556V196H127.545V193.553C127.543 193.286 127.481 193.089 127.36 192.961C127.242 192.834 127.056 192.77 126.803 192.77C126.598 192.77 126.418 192.825 126.263 192.934C126.108 193.043 125.987 193.187 125.901 193.365V196H125.269V192.302H125.867ZM131.144 196H130.508V191.786L129.233 192.254V191.68L131.045 191H131.144V196Z" fill="black"/>
<path d="M120.993 169.192C120.993 169.757 120.863 170.212 120.603 170.556C120.343 170.897 119.995 171.068 119.557 171.068C119.09 171.068 118.729 170.903 118.474 170.573L118.443 171H117.862V165.75H118.494V167.708C118.749 167.392 119.101 167.233 119.55 167.233C119.999 167.233 120.351 167.403 120.606 167.743C120.864 168.082 120.993 168.547 120.993 169.137V169.192ZM120.36 169.12C120.36 168.689 120.277 168.357 120.111 168.122C119.944 167.887 119.705 167.77 119.393 167.77C118.976 167.77 118.676 167.964 118.494 168.351V169.951C118.688 170.338 118.99 170.532 119.4 170.532C119.703 170.532 119.939 170.414 120.107 170.18C120.276 169.945 120.36 169.592 120.36 169.12ZM123.58 167.869C123.484 167.853 123.381 167.845 123.269 167.845C122.854 167.845 122.573 168.022 122.425 168.375V171H121.792V167.302H122.408L122.418 167.729C122.625 167.399 122.919 167.233 123.3 167.233C123.423 167.233 123.516 167.249 123.58 167.281V167.869ZM127.22 168.877C127.22 169.618 127.094 170.168 126.841 170.528C126.588 170.888 126.193 171.068 125.655 171.068C125.124 171.068 124.731 170.893 124.476 170.542C124.22 170.189 124.088 169.662 124.079 168.963V168.119C124.079 167.387 124.206 166.844 124.458 166.488C124.711 166.133 125.108 165.955 125.648 165.955C126.183 165.955 126.578 166.127 126.831 166.471C127.083 166.813 127.213 167.342 127.22 168.057V168.877ZM126.588 168.013C126.588 167.477 126.513 167.088 126.362 166.844C126.212 166.598 125.974 166.475 125.648 166.475C125.324 166.475 125.089 166.597 124.94 166.84C124.792 167.084 124.716 167.459 124.711 167.965V168.977C124.711 169.514 124.789 169.912 124.944 170.169C125.101 170.425 125.338 170.552 125.655 170.552C125.967 170.552 126.198 170.431 126.349 170.19C126.501 169.948 126.581 169.568 126.588 169.048V168.013Z" fill="black"/>
<path d="M100.633 154.142L101.549 151.302H102.195L100.869 155H100.387L99.0474 151.302H99.6934L100.633 154.142ZM104.291 155.068C103.789 155.068 103.381 154.904 103.067 154.576C102.752 154.246 102.595 153.805 102.595 153.253V153.137C102.595 152.77 102.665 152.443 102.804 152.156C102.945 151.867 103.141 151.641 103.392 151.479C103.645 151.315 103.918 151.233 104.212 151.233C104.693 151.233 105.066 151.392 105.333 151.708C105.6 152.025 105.733 152.479 105.733 153.069V153.332H103.228C103.237 153.697 103.343 153.992 103.545 154.217C103.75 154.441 104.01 154.552 104.325 154.552C104.548 154.552 104.737 154.507 104.892 154.416C105.047 154.324 105.183 154.204 105.299 154.053L105.685 154.354C105.375 154.83 104.91 155.068 104.291 155.068ZM104.212 151.753C103.957 151.753 103.743 151.846 103.569 152.033C103.396 152.218 103.289 152.478 103.248 152.812H105.101V152.765C105.082 152.443 104.996 152.195 104.841 152.02C104.686 151.842 104.476 151.753 104.212 151.753ZM107.326 150.406V151.302H108.016V151.791H107.326V154.084C107.326 154.232 107.356 154.344 107.418 154.419C107.479 154.492 107.584 154.528 107.732 154.528C107.805 154.528 107.906 154.515 108.033 154.487V155C107.867 155.046 107.705 155.068 107.548 155.068C107.265 155.068 107.052 154.983 106.909 154.812C106.765 154.641 106.693 154.398 106.693 154.084V151.791H106.02V151.302H106.693V150.406H107.326ZM109.39 151.75C109.67 151.405 110.035 151.233 110.484 151.233C111.265 151.233 111.66 151.674 111.667 152.556V155H111.034V152.553C111.032 152.286 110.97 152.089 110.85 151.961C110.731 151.834 110.545 151.77 110.292 151.77C110.087 151.77 109.907 151.825 109.752 151.934C109.597 152.043 109.477 152.187 109.39 152.365V155H108.758V149.75H109.39V151.75ZM114.626 155H113.991V150.786L112.716 151.254V150.68L114.527 150H114.626V155Z" fill="black"/>
<path d="M131.633 140.142L132.549 137.302H133.195L131.869 141H131.387L130.047 137.302H130.693L131.633 140.142ZM135.291 141.068C134.789 141.068 134.381 140.904 134.067 140.576C133.752 140.246 133.595 139.805 133.595 139.253V139.137C133.595 138.77 133.665 138.443 133.804 138.156C133.945 137.867 134.141 137.641 134.392 137.479C134.645 137.315 134.918 137.233 135.212 137.233C135.693 137.233 136.066 137.392 136.333 137.708C136.6 138.025 136.733 138.479 136.733 139.069V139.332H134.228C134.237 139.697 134.343 139.992 134.545 140.217C134.75 140.441 135.01 140.552 135.325 140.552C135.548 140.552 135.737 140.507 135.892 140.416C136.047 140.324 136.183 140.204 136.299 140.053L136.685 140.354C136.375 140.83 135.91 141.068 135.291 141.068ZM135.212 137.753C134.957 137.753 134.743 137.846 134.569 138.033C134.396 138.218 134.289 138.478 134.248 138.812H136.101V138.765C136.082 138.443 135.996 138.195 135.841 138.02C135.686 137.842 135.476 137.753 135.212 137.753ZM138.326 136.406V137.302H139.016V137.791H138.326V140.084C138.326 140.232 138.356 140.344 138.418 140.419C138.479 140.492 138.584 140.528 138.732 140.528C138.805 140.528 138.906 140.515 139.033 140.487V141C138.867 141.046 138.705 141.068 138.548 141.068C138.265 141.068 138.052 140.983 137.909 140.812C137.765 140.641 137.693 140.398 137.693 140.084V137.791H137.02V137.302H137.693V136.406H138.326ZM140.39 137.75C140.67 137.405 141.035 137.233 141.484 137.233C142.265 137.233 142.66 137.674 142.667 138.556V141H142.034V138.553C142.032 138.286 141.97 138.089 141.85 137.961C141.731 137.834 141.545 137.77 141.292 137.77C141.087 137.77 140.907 137.825 140.752 137.934C140.597 138.043 140.477 138.187 140.39 138.365V141H139.758V135.75H140.39V137.75ZM146.809 141H143.548V140.545L145.271 138.631C145.526 138.342 145.702 138.107 145.797 137.927C145.895 137.745 145.944 137.557 145.944 137.363C145.944 137.104 145.866 136.89 145.708 136.724C145.551 136.558 145.342 136.475 145.08 136.475C144.765 136.475 144.52 136.565 144.345 136.745C144.172 136.922 144.085 137.171 144.085 137.49H143.453C143.453 137.032 143.6 136.661 143.894 136.379C144.19 136.096 144.585 135.955 145.08 135.955C145.542 135.955 145.908 136.077 146.177 136.321C146.446 136.562 146.58 136.885 146.58 137.288C146.58 137.778 146.268 138.361 145.644 139.038L144.311 140.484H146.809V141Z" fill="black"/>
<path d="M95.6484 68.293C95.543 69.1953 95.209 69.8926 94.6465 70.3848C94.0879 70.873 93.3438 71.1172 92.4141 71.1172C91.4062 71.1172 90.5977 70.7559 89.9883 70.0332C89.3828 69.3105 89.0801 68.3438 89.0801 67.1328V66.3125C89.0801 65.5195 89.2207 64.8223 89.502 64.2207C89.7871 63.6191 90.1895 63.1582 90.709 62.8379C91.2285 62.5137 91.8301 62.3516 92.5137 62.3516C93.4199 62.3516 94.1465 62.6055 94.6934 63.1133C95.2402 63.6172 95.5586 64.3164 95.6484 65.2109H94.5176C94.4199 64.5312 94.207 64.0391 93.8789 63.7344C93.5547 63.4297 93.0996 63.2773 92.5137 63.2773C91.7949 63.2773 91.2305 63.543 90.8203 64.0742C90.4141 64.6055 90.2109 65.3613 90.2109 66.3418V67.168C90.2109 68.0938 90.4043 68.8301 90.791 69.377C91.1777 69.9238 91.7188 70.1973 92.4141 70.1973C93.0391 70.1973 93.5176 70.0566 93.8496 69.7754C94.1855 69.4902 94.4082 68.9961 94.5176 68.293H95.6484ZM96.7324 67.7715C96.7324 67.1504 96.8535 66.5918 97.0957 66.0957C97.3418 65.5996 97.6816 65.2168 98.1152 64.9473C98.5527 64.6777 99.0508 64.543 99.6094 64.543C100.473 64.543 101.17 64.8418 101.701 65.4395C102.236 66.0371 102.504 66.832 102.504 67.8242V67.9004C102.504 68.5176 102.385 69.0723 102.146 69.5645C101.912 70.0527 101.574 70.4336 101.133 70.707C100.695 70.9805 100.191 71.1172 99.6211 71.1172C98.7617 71.1172 98.0645 70.8184 97.5293 70.2207C96.998 69.623 96.7324 68.832 96.7324 67.8477V67.7715ZM97.8223 67.9004C97.8223 68.6035 97.9844 69.168 98.3086 69.5938C98.6367 70.0195 99.0742 70.2324 99.6211 70.2324C100.172 70.2324 100.609 70.0176 100.934 69.5879C101.258 69.1543 101.42 68.5488 101.42 67.7715C101.42 67.0762 101.254 66.5137 100.922 66.084C100.594 65.6504 100.156 65.4336 99.6094 65.4336C99.0742 65.4336 98.6426 65.6465 98.3145 66.0723C97.9863 66.498 97.8223 67.1074 97.8223 67.9004ZM104.889 64.6602L104.924 65.457C105.408 64.8477 106.041 64.543 106.822 64.543C108.162 64.543 108.838 65.2988 108.85 66.8105V71H107.766V66.8047C107.762 66.3477 107.656 66.0098 107.449 65.791C107.246 65.5723 106.928 65.4629 106.494 65.4629C106.143 65.4629 105.834 65.5566 105.568 65.7441C105.303 65.9316 105.096 66.1777 104.947 66.4824V71H103.863V64.6602H104.889ZM111.955 63.125V64.6602H113.139V65.498H111.955V69.4297C111.955 69.6836 112.008 69.875 112.113 70.0039C112.219 70.1289 112.398 70.1914 112.652 70.1914C112.777 70.1914 112.949 70.168 113.168 70.1211V71C112.883 71.0781 112.605 71.1172 112.336 71.1172C111.852 71.1172 111.486 70.9707 111.24 70.6777C110.994 70.3848 110.871 69.9688 110.871 69.4297V65.498H109.717V64.6602H110.871V63.125H111.955ZM118.324 71C118.262 70.875 118.211 70.6523 118.172 70.332C117.668 70.8555 117.066 71.1172 116.367 71.1172C115.742 71.1172 115.229 70.9414 114.826 70.5898C114.428 70.2344 114.229 69.7852 114.229 69.2422C114.229 68.582 114.479 68.0703 114.979 67.707C115.482 67.3398 116.189 67.1562 117.1 67.1562H118.154V66.6582C118.154 66.2793 118.041 65.9785 117.814 65.7559C117.588 65.5293 117.254 65.416 116.812 65.416C116.426 65.416 116.102 65.5137 115.84 65.709C115.578 65.9043 115.447 66.1406 115.447 66.418H114.357C114.357 66.1016 114.469 65.7969 114.691 65.5039C114.918 65.207 115.223 64.9727 115.605 64.8008C115.992 64.6289 116.416 64.543 116.877 64.543C117.607 64.543 118.18 64.7266 118.594 65.0938C119.008 65.457 119.223 65.959 119.238 66.5996V69.5176C119.238 70.0996 119.312 70.5625 119.461 70.9062V71H118.324ZM116.525 70.1738C116.865 70.1738 117.188 70.0859 117.492 69.9102C117.797 69.7344 118.018 69.5059 118.154 69.2246V67.9238H117.305C115.977 67.9238 115.312 68.3125 115.312 69.0898C115.312 69.4297 115.426 69.6953 115.652 69.8867C115.879 70.0781 116.17 70.1738 116.525 70.1738ZM122.115 71H121.031V64.6602H122.115V71ZM120.943 62.9785C120.943 62.8027 120.996 62.6543 121.102 62.5332C121.211 62.4121 121.371 62.3516 121.582 62.3516C121.793 62.3516 121.953 62.4121 122.062 62.5332C122.172 62.6543 122.227 62.8027 122.227 62.9785C122.227 63.1543 122.172 63.3008 122.062 63.418C121.953 63.5352 121.793 63.5938 121.582 63.5938C121.371 63.5938 121.211 63.5352 121.102 63.418C120.996 63.3008 120.943 63.1543 120.943 62.9785ZM124.881 64.6602L124.916 65.457C125.4 64.8477 126.033 64.543 126.814 64.543C128.154 64.543 128.83 65.2988 128.842 66.8105V71H127.758V66.8047C127.754 66.3477 127.648 66.0098 127.441 65.791C127.238 65.5723 126.92 65.4629 126.486 65.4629C126.135 65.4629 125.826 65.5566 125.561 65.7441C125.295 65.9316 125.088 66.1777 124.939 66.4824V71H123.855V64.6602H124.881ZM133.107 71.1172C132.248 71.1172 131.549 70.8359 131.01 70.2734C130.471 69.707 130.201 68.9512 130.201 68.0059V67.8066C130.201 67.1777 130.32 66.6172 130.559 66.125C130.801 65.6289 131.137 65.2422 131.566 64.9648C132 64.6836 132.469 64.543 132.973 64.543C133.797 64.543 134.438 64.8145 134.895 65.3574C135.352 65.9004 135.58 66.6777 135.58 67.6895V68.1406H131.285C131.301 68.7656 131.482 69.2715 131.83 69.6582C132.182 70.041 132.627 70.2324 133.166 70.2324C133.549 70.2324 133.873 70.1543 134.139 69.998C134.404 69.8418 134.637 69.6348 134.836 69.377L135.498 69.8926C134.967 70.709 134.17 71.1172 133.107 71.1172ZM132.973 65.4336C132.535 65.4336 132.168 65.5938 131.871 65.9141C131.574 66.2305 131.391 66.6758 131.32 67.25H134.496V67.168C134.465 66.6172 134.316 66.1914 134.051 65.8906C133.785 65.5859 133.426 65.4336 132.973 65.4336ZM139.904 65.6328C139.74 65.6055 139.562 65.5918 139.371 65.5918C138.66 65.5918 138.178 65.8945 137.924 66.5V71H136.84V64.6602H137.895L137.912 65.3926C138.268 64.8262 138.771 64.543 139.424 64.543C139.635 64.543 139.795 64.5703 139.904 64.625V65.6328ZM150.328 68.293C150.223 69.1953 149.889 69.8926 149.326 70.3848C148.768 70.873 148.023 71.1172 147.094 71.1172C146.086 71.1172 145.277 70.7559 144.668 70.0332C144.062 69.3105 143.76 68.3438 143.76 67.1328V66.3125C143.76 65.5195 143.9 64.8223 144.182 64.2207C144.467 63.6191 144.869 63.1582 145.389 62.8379C145.908 62.5137 146.51 62.3516 147.193 62.3516C148.1 62.3516 148.826 62.6055 149.373 63.1133C149.92 63.6172 150.238 64.3164 150.328 65.2109H149.197C149.1 64.5312 148.887 64.0391 148.559 63.7344C148.234 63.4297 147.779 63.2773 147.193 63.2773C146.475 63.2773 145.91 63.543 145.5 64.0742C145.094 64.6055 144.891 65.3613 144.891 66.3418V67.168C144.891 68.0938 145.084 68.8301 145.471 69.377C145.857 69.9238 146.398 70.1973 147.094 70.1973C147.719 70.1973 148.197 70.0566 148.529 69.7754C148.865 69.4902 149.088 68.9961 149.197 68.293H150.328ZM155.15 71H154.061V63.7754L151.875 64.5781V63.5938L154.98 62.4277H155.15V71Z" fill="black"/>
<path d="M185.656 31H184.525V27.0566H180.225V31H179.1V22.4688H180.225V26.1367H184.525V22.4688H185.656V31ZM187.197 27.7715C187.197 27.1504 187.318 26.5918 187.561 26.0957C187.807 25.5996 188.146 25.2168 188.58 24.9473C189.018 24.6777 189.516 24.543 190.074 24.543C190.938 24.543 191.635 24.8418 192.166 25.4395C192.701 26.0371 192.969 26.832 192.969 27.8242V27.9004C192.969 28.5176 192.85 29.0723 192.611 29.5645C192.377 30.0527 192.039 30.4336 191.598 30.707C191.16 30.9805 190.656 31.1172 190.086 31.1172C189.227 31.1172 188.529 30.8184 187.994 30.2207C187.463 29.623 187.197 28.832 187.197 27.8477V27.7715ZM188.287 27.9004C188.287 28.6035 188.449 29.168 188.773 29.5938C189.102 30.0195 189.539 30.2324 190.086 30.2324C190.637 30.2324 191.074 30.0176 191.398 29.5879C191.723 29.1543 191.885 28.5488 191.885 27.7715C191.885 27.0762 191.719 26.5137 191.387 26.084C191.059 25.6504 190.621 25.4336 190.074 25.4336C189.539 25.4336 189.107 25.6465 188.779 26.0723C188.451 26.498 188.287 27.1074 188.287 27.9004ZM198.02 29.3184C198.02 29.0254 197.908 28.7988 197.686 28.6387C197.467 28.4746 197.082 28.334 196.531 28.2168C195.984 28.0996 195.549 27.959 195.225 27.7949C194.904 27.6309 194.666 27.4355 194.51 27.209C194.357 26.9824 194.281 26.7129 194.281 26.4004C194.281 25.8809 194.5 25.4414 194.938 25.082C195.379 24.7227 195.941 24.543 196.625 24.543C197.344 24.543 197.926 24.7285 198.371 25.0996C198.82 25.4707 199.045 25.9453 199.045 26.5234H197.955C197.955 26.2266 197.828 25.9707 197.574 25.7559C197.324 25.541 197.008 25.4336 196.625 25.4336C196.23 25.4336 195.922 25.5195 195.699 25.6914C195.477 25.8633 195.365 26.0879 195.365 26.3652C195.365 26.627 195.469 26.8242 195.676 26.957C195.883 27.0898 196.256 27.2168 196.795 27.3379C197.338 27.459 197.777 27.6035 198.113 27.7715C198.449 27.9395 198.697 28.1426 198.857 28.3809C199.021 28.6152 199.104 28.9023 199.104 29.2422C199.104 29.8086 198.877 30.2637 198.424 30.6074C197.971 30.9473 197.383 31.1172 196.66 31.1172C196.152 31.1172 195.703 31.0273 195.312 30.8477C194.922 30.668 194.615 30.418 194.393 30.0977C194.174 29.7734 194.064 29.4238 194.064 29.0488H195.148C195.168 29.4121 195.312 29.7012 195.582 29.916C195.855 30.127 196.215 30.2324 196.66 30.2324C197.07 30.2324 197.398 30.1504 197.645 29.9863C197.895 29.8184 198.02 29.5957 198.02 29.3184ZM201.986 23.125V24.6602H203.17V25.498H201.986V29.4297C201.986 29.6836 202.039 29.875 202.145 30.0039C202.25 30.1289 202.43 30.1914 202.684 30.1914C202.809 30.1914 202.98 30.168 203.199 30.1211V31C202.914 31.0781 202.637 31.1172 202.367 31.1172C201.883 31.1172 201.518 30.9707 201.271 30.6777C201.025 30.3848 200.902 29.9688 200.902 29.4297V25.498H199.748V24.6602H200.902V23.125H201.986ZM214.145 31H213.014V27.0566H208.713V31H207.588V22.4688H208.713V26.1367H213.014V22.4688H214.145V31ZM219.424 31H218.334V23.7754L216.148 24.5781V23.5938L219.254 22.4277H219.424V31Z" fill="black"/>
<rect x="303.5" y="9.5" width="217" height="205.667" fill="#C5C5C5" fill-opacity="0.26" stroke="black"/>
<rect x="391.238" y="205.667" width="40.875" height="19.3333" fill="#B0B0B0" fill-opacity="0.7" stroke="black" stroke-width="0.2"/>
<rect x="401" y="180" width="21" height="26" fill="#6FCF97" fill-opacity="0.7" stroke="black" stroke-width="0.2"/>
<rect x="352.31" y="157" width="119.381" height="22.6667" fill="#6FCF97" fill-opacity="0.7" stroke="black"/>
<rect x="409.405" y="133.667" width="5.19048" height="23.3333" fill="url(#paint1_linear_0_1)" stroke="black" stroke-width="0.2"/>
<rect x="363.839" y="19.5" width="96.3214" height="103.667" fill="#FCFF7E" fill-opacity="0.7" stroke="black"/>
<path d="M391.238 114.333H432.113V133.667H391.238V114.333Z" fill="#2F80ED" fill-opacity="0.7" stroke="black" stroke-width="0.2"/>
<path d="M406.619 218.068C406.118 218.068 405.71 217.904 405.396 217.576C405.081 217.246 404.924 216.805 404.924 216.253V216.137C404.924 215.77 404.993 215.443 405.132 215.156C405.274 214.867 405.47 214.641 405.72 214.479C405.973 214.315 406.247 214.233 406.541 214.233C407.021 214.233 407.395 214.392 407.662 214.708C407.928 215.025 408.062 215.479 408.062 216.069V216.332H405.556C405.565 216.697 405.671 216.992 405.874 217.217C406.079 217.441 406.339 217.552 406.653 217.552C406.877 217.552 407.066 217.507 407.221 217.416C407.376 217.324 407.511 217.204 407.627 217.053L408.014 217.354C407.704 217.83 407.239 218.068 406.619 218.068ZM406.541 214.753C406.285 214.753 406.071 214.846 405.898 215.033C405.725 215.218 405.618 215.478 405.577 215.812H407.429V215.765C407.411 215.443 407.324 215.195 407.169 215.02C407.014 214.842 406.805 214.753 406.541 214.753ZM409.654 213.406V214.302H410.345V214.791H409.654V217.084C409.654 217.232 409.685 217.344 409.747 217.419C409.808 217.492 409.913 217.528 410.061 217.528C410.134 217.528 410.234 217.515 410.362 217.487V218C410.195 218.046 410.034 218.068 409.876 218.068C409.594 218.068 409.381 217.983 409.237 217.812C409.094 217.641 409.022 217.398 409.022 217.084V214.791H408.349V214.302H409.022V213.406H409.654ZM411.719 214.75C411.999 214.405 412.364 214.233 412.812 214.233C413.594 214.233 413.988 214.674 413.995 215.556V218H413.363V215.553C413.361 215.286 413.299 215.089 413.178 214.961C413.06 214.834 412.874 214.77 412.621 214.77C412.416 214.77 412.236 214.825 412.081 214.934C411.926 215.043 411.805 215.187 411.719 215.365V218H411.086V212.75H411.719V214.75ZM417.998 215.877C417.998 216.618 417.871 217.168 417.618 217.528C417.365 217.888 416.97 218.068 416.432 218.068C415.901 218.068 415.508 217.893 415.253 217.542C414.998 217.189 414.866 216.662 414.856 215.963V215.119C414.856 214.387 414.983 213.844 415.236 213.488C415.489 213.133 415.885 212.955 416.425 212.955C416.961 212.955 417.355 213.127 417.608 213.471C417.861 213.813 417.991 214.342 417.998 215.057V215.877ZM417.365 215.013C417.365 214.477 417.29 214.088 417.14 213.844C416.989 213.598 416.751 213.475 416.425 213.475C416.102 213.475 415.866 213.597 415.718 213.84C415.57 214.084 415.493 214.459 415.489 214.965V215.977C415.489 216.514 415.566 216.912 415.721 217.169C415.878 217.425 416.115 217.552 416.432 217.552C416.744 217.552 416.976 217.431 417.126 217.19C417.279 216.948 417.358 216.568 417.365 216.048V215.013Z" fill="black"/>
<path d="M403.116 195.142L404.032 192.302H404.678L403.352 196H402.87L401.53 192.302H402.176L403.116 195.142ZM406.527 193.652L407.347 192.302H408.085L406.875 194.13L408.123 196H407.392L406.537 194.616L405.683 196H404.948L406.195 194.13L404.985 192.302H405.717L406.527 193.652ZM409.446 196H408.813V190.75H409.446V196ZM412.744 196C412.708 195.927 412.678 195.797 412.655 195.61C412.361 195.916 412.01 196.068 411.603 196.068C411.238 196.068 410.938 195.966 410.704 195.761C410.471 195.553 410.355 195.291 410.355 194.975C410.355 194.59 410.501 194.291 410.792 194.079C411.086 193.865 411.499 193.758 412.03 193.758H412.645V193.467C412.645 193.246 412.579 193.071 412.447 192.941C412.315 192.809 412.12 192.743 411.862 192.743C411.637 192.743 411.448 192.8 411.295 192.914C411.142 193.028 411.066 193.165 411.066 193.327H410.43C410.43 193.143 410.495 192.965 410.625 192.794C410.757 192.621 410.935 192.484 411.158 192.384C411.384 192.284 411.631 192.233 411.9 192.233C412.326 192.233 412.66 192.34 412.901 192.555C413.143 192.767 413.268 193.059 413.277 193.433V195.135C413.277 195.475 413.321 195.745 413.407 195.945V196H412.744ZM411.695 195.518C411.893 195.518 412.081 195.467 412.259 195.364C412.437 195.262 412.565 195.128 412.645 194.964V194.206H412.149C411.375 194.206 410.987 194.432 410.987 194.886C410.987 195.084 411.053 195.239 411.186 195.351C411.318 195.462 411.487 195.518 411.695 195.518ZM414.867 192.302L414.887 192.767C415.17 192.411 415.539 192.233 415.995 192.233C416.776 192.233 417.17 192.674 417.177 193.556V196H416.545V193.553C416.543 193.286 416.481 193.089 416.36 192.961C416.242 192.834 416.056 192.77 415.803 192.77C415.598 192.77 415.418 192.825 415.263 192.934C415.108 193.043 414.987 193.187 414.901 193.365V196H414.269V192.302H414.867ZM420.144 196H419.508V191.786L418.233 192.254V191.68L420.045 191H420.144V196Z" fill="black"/>
<path d="M409.993 169.192C409.993 169.757 409.863 170.212 409.603 170.556C409.343 170.897 408.995 171.068 408.557 171.068C408.09 171.068 407.729 170.903 407.474 170.573L407.443 171H406.862V165.75H407.494V167.708C407.749 167.392 408.101 167.233 408.55 167.233C408.999 167.233 409.351 167.403 409.606 167.743C409.864 168.082 409.993 168.547 409.993 169.137V169.192ZM409.36 169.12C409.36 168.689 409.277 168.357 409.111 168.122C408.944 167.887 408.705 167.77 408.393 167.77C407.976 167.77 407.676 167.964 407.494 168.351V169.951C407.688 170.338 407.99 170.532 408.4 170.532C408.703 170.532 408.939 170.414 409.107 170.18C409.276 169.945 409.36 169.592 409.36 169.12ZM412.58 167.869C412.484 167.853 412.381 167.845 412.269 167.845C411.854 167.845 411.573 168.022 411.425 168.375V171H410.792V167.302H411.408L411.418 167.729C411.625 167.399 411.919 167.233 412.3 167.233C412.423 167.233 412.516 167.249 412.58 167.281V167.869ZM416.22 168.877C416.22 169.618 416.094 170.168 415.841 170.528C415.588 170.888 415.193 171.068 414.655 171.068C414.124 171.068 413.731 170.893 413.476 170.542C413.22 170.189 413.088 169.662 413.079 168.963V168.119C413.079 167.387 413.206 166.844 413.458 166.488C413.711 166.133 414.108 165.955 414.648 165.955C415.183 165.955 415.578 166.127 415.831 166.471C416.083 166.813 416.213 167.342 416.22 168.057V168.877ZM415.588 168.013C415.588 167.477 415.513 167.088 415.362 166.844C415.212 166.598 414.974 166.475 414.648 166.475C414.324 166.475 414.089 166.597 413.94 166.84C413.792 167.084 413.716 167.459 413.711 167.965V168.977C413.711 169.514 413.789 169.912 413.944 170.169C414.101 170.425 414.338 170.552 414.655 170.552C414.967 170.552 415.198 170.431 415.349 170.19C415.501 169.948 415.581 169.568 415.588 169.048V168.013Z" fill="black"/>
<path d="M389.633 154.142L390.549 151.302H391.195L389.869 155H389.387L388.047 151.302H388.693L389.633 154.142ZM393.291 155.068C392.789 155.068 392.381 154.904 392.067 154.576C391.752 154.246 391.595 153.805 391.595 153.253V153.137C391.595 152.77 391.665 152.443 391.804 152.156C391.945 151.867 392.141 151.641 392.392 151.479C392.645 151.315 392.918 151.233 393.212 151.233C393.693 151.233 394.066 151.392 394.333 151.708C394.6 152.025 394.733 152.479 394.733 153.069V153.332H392.228C392.237 153.697 392.343 153.992 392.545 154.217C392.75 154.441 393.01 154.552 393.325 154.552C393.548 154.552 393.737 154.507 393.892 154.416C394.047 154.324 394.183 154.204 394.299 154.053L394.685 154.354C394.375 154.83 393.91 155.068 393.291 155.068ZM393.212 151.753C392.957 151.753 392.743 151.846 392.569 152.033C392.396 152.218 392.289 152.478 392.248 152.812H394.101V152.765C394.082 152.443 393.996 152.195 393.841 152.02C393.686 151.842 393.476 151.753 393.212 151.753ZM396.326 150.406V151.302H397.016V151.791H396.326V154.084C396.326 154.232 396.356 154.344 396.418 154.419C396.479 154.492 396.584 154.528 396.732 154.528C396.805 154.528 396.906 154.515 397.033 154.487V155C396.867 155.046 396.705 155.068 396.548 155.068C396.265 155.068 396.052 154.983 395.909 154.812C395.765 154.641 395.693 154.398 395.693 154.084V151.791H395.02V151.302H395.693V150.406H396.326ZM398.39 151.75C398.67 151.405 399.035 151.233 399.484 151.233C400.265 151.233 400.66 151.674 400.667 152.556V155H400.034V152.553C400.032 152.286 399.97 152.089 399.85 151.961C399.731 151.834 399.545 151.77 399.292 151.77C399.087 151.77 398.907 151.825 398.752 151.934C398.597 152.043 398.477 152.187 398.39 152.365V155H397.758V149.75H398.39V151.75ZM403.626 155H402.991V150.786L401.716 151.254V150.68L403.527 150H403.626V155Z" fill="black"/>
<path d="M420.633 140.142L421.549 137.302H422.195L420.869 141H420.387L419.047 137.302H419.693L420.633 140.142ZM424.291 141.068C423.789 141.068 423.381 140.904 423.067 140.576C422.752 140.246 422.595 139.805 422.595 139.253V139.137C422.595 138.77 422.665 138.443 422.804 138.156C422.945 137.867 423.141 137.641 423.392 137.479C423.645 137.315 423.918 137.233 424.212 137.233C424.693 137.233 425.066 137.392 425.333 137.708C425.6 138.025 425.733 138.479 425.733 139.069V139.332H423.228C423.237 139.697 423.343 139.992 423.545 140.217C423.75 140.441 424.01 140.552 424.325 140.552C424.548 140.552 424.737 140.507 424.892 140.416C425.047 140.324 425.183 140.204 425.299 140.053L425.685 140.354C425.375 140.83 424.91 141.068 424.291 141.068ZM424.212 137.753C423.957 137.753 423.743 137.846 423.569 138.033C423.396 138.218 423.289 138.478 423.248 138.812H425.101V138.765C425.082 138.443 424.996 138.195 424.841 138.02C424.686 137.842 424.476 137.753 424.212 137.753ZM427.326 136.406V137.302H428.016V137.791H427.326V140.084C427.326 140.232 427.356 140.344 427.418 140.419C427.479 140.492 427.584 140.528 427.732 140.528C427.805 140.528 427.906 140.515 428.033 140.487V141C427.867 141.046 427.705 141.068 427.548 141.068C427.265 141.068 427.052 140.983 426.909 140.812C426.765 140.641 426.693 140.398 426.693 140.084V137.791H426.02V137.302H426.693V136.406H427.326ZM429.39 137.75C429.67 137.405 430.035 137.233 430.484 137.233C431.265 137.233 431.66 137.674 431.667 138.556V141H431.034V138.553C431.032 138.286 430.97 138.089 430.85 137.961C430.731 137.834 430.545 137.77 430.292 137.77C430.087 137.77 429.907 137.825 429.752 137.934C429.597 138.043 429.477 138.187 429.39 138.365V141H428.758V135.75H429.39V137.75ZM435.809 141H432.548V140.545L434.271 138.631C434.526 138.342 434.702 138.107 434.797 137.927C434.895 137.745 434.944 137.557 434.944 137.363C434.944 137.104 434.866 136.89 434.708 136.724C434.551 136.558 434.342 136.475 434.08 136.475C433.765 136.475 433.52 136.565 433.345 136.745C433.172 136.922 433.085 137.171 433.085 137.49H432.453C432.453 137.032 432.6 136.661 432.894 136.379C433.19 136.096 433.585 135.955 434.08 135.955C434.542 135.955 434.908 136.077 435.177 136.321C435.446 136.562 435.58 136.885 435.58 137.288C435.58 137.778 435.268 138.361 434.644 139.038L433.311 140.484H435.809V141Z" fill="black"/>
<path d="M384.648 68.293C384.543 69.1953 384.209 69.8926 383.646 70.3848C383.088 70.873 382.344 71.1172 381.414 71.1172C380.406 71.1172 379.598 70.7559 378.988 70.0332C378.383 69.3105 378.08 68.3438 378.08 67.1328V66.3125C378.08 65.5195 378.221 64.8223 378.502 64.2207C378.787 63.6191 379.189 63.1582 379.709 62.8379C380.229 62.5137 380.83 62.3516 381.514 62.3516C382.42 62.3516 383.146 62.6055 383.693 63.1133C384.24 63.6172 384.559 64.3164 384.648 65.2109H383.518C383.42 64.5312 383.207 64.0391 382.879 63.7344C382.555 63.4297 382.1 63.2773 381.514 63.2773C380.795 63.2773 380.23 63.543 379.82 64.0742C379.414 64.6055 379.211 65.3613 379.211 66.3418V67.168C379.211 68.0938 379.404 68.8301 379.791 69.377C380.178 69.9238 380.719 70.1973 381.414 70.1973C382.039 70.1973 382.518 70.0566 382.85 69.7754C383.186 69.4902 383.408 68.9961 383.518 68.293H384.648ZM385.732 67.7715C385.732 67.1504 385.854 66.5918 386.096 66.0957C386.342 65.5996 386.682 65.2168 387.115 64.9473C387.553 64.6777 388.051 64.543 388.609 64.543C389.473 64.543 390.17 64.8418 390.701 65.4395C391.236 66.0371 391.504 66.832 391.504 67.8242V67.9004C391.504 68.5176 391.385 69.0723 391.146 69.5645C390.912 70.0527 390.574 70.4336 390.133 70.707C389.695 70.9805 389.191 71.1172 388.621 71.1172C387.762 71.1172 387.064 70.8184 386.529 70.2207C385.998 69.623 385.732 68.832 385.732 67.8477V67.7715ZM386.822 67.9004C386.822 68.6035 386.984 69.168 387.309 69.5938C387.637 70.0195 388.074 70.2324 388.621 70.2324C389.172 70.2324 389.609 70.0176 389.934 69.5879C390.258 69.1543 390.42 68.5488 390.42 67.7715C390.42 67.0762 390.254 66.5137 389.922 66.084C389.594 65.6504 389.156 65.4336 388.609 65.4336C388.074 65.4336 387.643 65.6465 387.314 66.0723C386.986 66.498 386.822 67.1074 386.822 67.9004ZM393.889 64.6602L393.924 65.457C394.408 64.8477 395.041 64.543 395.822 64.543C397.162 64.543 397.838 65.2988 397.85 66.8105V71H396.766V66.8047C396.762 66.3477 396.656 66.0098 396.449 65.791C396.246 65.5723 395.928 65.4629 395.494 65.4629C395.143 65.4629 394.834 65.5566 394.568 65.7441C394.303 65.9316 394.096 66.1777 393.947 66.4824V71H392.863V64.6602H393.889ZM400.955 63.125V64.6602H402.139V65.498H400.955V69.4297C400.955 69.6836 401.008 69.875 401.113 70.0039C401.219 70.1289 401.398 70.1914 401.652 70.1914C401.777 70.1914 401.949 70.168 402.168 70.1211V71C401.883 71.0781 401.605 71.1172 401.336 71.1172C400.852 71.1172 400.486 70.9707 400.24 70.6777C399.994 70.3848 399.871 69.9688 399.871 69.4297V65.498H398.717V64.6602H399.871V63.125H400.955ZM407.324 71C407.262 70.875 407.211 70.6523 407.172 70.332C406.668 70.8555 406.066 71.1172 405.367 71.1172C404.742 71.1172 404.229 70.9414 403.826 70.5898C403.428 70.2344 403.229 69.7852 403.229 69.2422C403.229 68.582 403.479 68.0703 403.979 67.707C404.482 67.3398 405.189 67.1562 406.1 67.1562H407.154V66.6582C407.154 66.2793 407.041 65.9785 406.814 65.7559C406.588 65.5293 406.254 65.416 405.812 65.416C405.426 65.416 405.102 65.5137 404.84 65.709C404.578 65.9043 404.447 66.1406 404.447 66.418H403.357C403.357 66.1016 403.469 65.7969 403.691 65.5039C403.918 65.207 404.223 64.9727 404.605 64.8008C404.992 64.6289 405.416 64.543 405.877 64.543C406.607 64.543 407.18 64.7266 407.594 65.0938C408.008 65.457 408.223 65.959 408.238 66.5996V69.5176C408.238 70.0996 408.312 70.5625 408.461 70.9062V71H407.324ZM405.525 70.1738C405.865 70.1738 406.188 70.0859 406.492 69.9102C406.797 69.7344 407.018 69.5059 407.154 69.2246V67.9238H406.305C404.977 67.9238 404.312 68.3125 404.312 69.0898C404.312 69.4297 404.426 69.6953 404.652 69.8867C404.879 70.0781 405.17 70.1738 405.525 70.1738ZM411.115 71H410.031V64.6602H411.115V71ZM409.943 62.9785C409.943 62.8027 409.996 62.6543 410.102 62.5332C410.211 62.4121 410.371 62.3516 410.582 62.3516C410.793 62.3516 410.953 62.4121 411.062 62.5332C411.172 62.6543 411.227 62.8027 411.227 62.9785C411.227 63.1543 411.172 63.3008 411.062 63.418C410.953 63.5352 410.793 63.5938 410.582 63.5938C410.371 63.5938 410.211 63.5352 410.102 63.418C409.996 63.3008 409.943 63.1543 409.943 62.9785ZM413.881 64.6602L413.916 65.457C414.4 64.8477 415.033 64.543 415.814 64.543C417.154 64.543 417.83 65.2988 417.842 66.8105V71H416.758V66.8047C416.754 66.3477 416.648 66.0098 416.441 65.791C416.238 65.5723 415.92 65.4629 415.486 65.4629C415.135 65.4629 414.826 65.5566 414.561 65.7441C414.295 65.9316 414.088 66.1777 413.939 66.4824V71H412.855V64.6602H413.881ZM422.107 71.1172C421.248 71.1172 420.549 70.8359 420.01 70.2734C419.471 69.707 419.201 68.9512 419.201 68.0059V67.8066C419.201 67.1777 419.32 66.6172 419.559 66.125C419.801 65.6289 420.137 65.2422 420.566 64.9648C421 64.6836 421.469 64.543 421.973 64.543C422.797 64.543 423.438 64.8145 423.895 65.3574C424.352 65.9004 424.58 66.6777 424.58 67.6895V68.1406H420.285C420.301 68.7656 420.482 69.2715 420.83 69.6582C421.182 70.041 421.627 70.2324 422.166 70.2324C422.549 70.2324 422.873 70.1543 423.139 69.998C423.404 69.8418 423.637 69.6348 423.836 69.377L424.498 69.8926C423.967 70.709 423.17 71.1172 422.107 71.1172ZM421.973 65.4336C421.535 65.4336 421.168 65.5938 420.871 65.9141C420.574 66.2305 420.391 66.6758 420.32 67.25H423.496V67.168C423.465 66.6172 423.316 66.1914 423.051 65.8906C422.785 65.5859 422.426 65.4336 421.973 65.4336ZM428.904 65.6328C428.74 65.6055 428.562 65.5918 428.371 65.5918C427.66 65.5918 427.178 65.8945 426.924 66.5V71H425.84V64.6602H426.895L426.912 65.3926C427.268 64.8262 427.771 64.543 428.424 64.543C428.635 64.543 428.795 64.5703 428.904 64.625V65.6328ZM439.328 68.293C439.223 69.1953 438.889 69.8926 438.326 70.3848C437.768 70.873 437.023 71.1172 436.094 71.1172C435.086 71.1172 434.277 70.7559 433.668 70.0332C433.062 69.3105 432.76 68.3438 432.76 67.1328V66.3125C432.76 65.5195 432.9 64.8223 433.182 64.2207C433.467 63.6191 433.869 63.1582 434.389 62.8379C434.908 62.5137 435.51 62.3516 436.193 62.3516C437.1 62.3516 437.826 62.6055 438.373 63.1133C438.92 63.6172 439.238 64.3164 439.328 65.2109H438.197C438.1 64.5312 437.887 64.0391 437.559 63.7344C437.234 63.4297 436.779 63.2773 436.193 63.2773C435.475 63.2773 434.91 63.543 434.5 64.0742C434.094 64.6055 433.891 65.3613 433.891 66.3418V67.168C433.891 68.0938 434.084 68.8301 434.471 69.377C434.857 69.9238 435.398 70.1973 436.094 70.1973C436.719 70.1973 437.197 70.0566 437.529 69.7754C437.865 69.4902 438.088 68.9961 438.197 68.293H439.328ZM446.178 71H440.588V70.2207L443.541 66.9395C443.979 66.4434 444.279 66.041 444.443 65.7324C444.611 65.4199 444.695 65.0977 444.695 64.7656C444.695 64.3203 444.561 63.9551 444.291 63.6699C444.021 63.3848 443.662 63.2422 443.213 63.2422C442.674 63.2422 442.254 63.3965 441.953 63.7051C441.656 64.0098 441.508 64.4355 441.508 64.9824H440.424C440.424 64.1973 440.676 63.5625 441.18 63.0781C441.688 62.5938 442.365 62.3516 443.213 62.3516C444.006 62.3516 444.633 62.5605 445.094 62.9785C445.555 63.3926 445.785 63.9453 445.785 64.6367C445.785 65.4766 445.25 66.4766 444.18 67.6367L441.895 70.1152H446.178V71Z" fill="black"/>
<path d="M474.656 31H473.525V27.0566H469.225V31H468.1V22.4688H469.225V26.1367H473.525V22.4688H474.656V31ZM476.197 27.7715C476.197 27.1504 476.318 26.5918 476.561 26.0957C476.807 25.5996 477.146 25.2168 477.58 24.9473C478.018 24.6777 478.516 24.543 479.074 24.543C479.938 24.543 480.635 24.8418 481.166 25.4395C481.701 26.0371 481.969 26.832 481.969 27.8242V27.9004C481.969 28.5176 481.85 29.0723 481.611 29.5645C481.377 30.0527 481.039 30.4336 480.598 30.707C480.16 30.9805 479.656 31.1172 479.086 31.1172C478.227 31.1172 477.529 30.8184 476.994 30.2207C476.463 29.623 476.197 28.832 476.197 27.8477V27.7715ZM477.287 27.9004C477.287 28.6035 477.449 29.168 477.773 29.5938C478.102 30.0195 478.539 30.2324 479.086 30.2324C479.637 30.2324 480.074 30.0176 480.398 29.5879C480.723 29.1543 480.885 28.5488 480.885 27.7715C480.885 27.0762 480.719 26.5137 480.387 26.084C480.059 25.6504 479.621 25.4336 479.074 25.4336C478.539 25.4336 478.107 25.6465 477.779 26.0723C477.451 26.498 477.287 27.1074 477.287 27.9004ZM487.02 29.3184C487.02 29.0254 486.908 28.7988 486.686 28.6387C486.467 28.4746 486.082 28.334 485.531 28.2168C484.984 28.0996 484.549 27.959 484.225 27.7949C483.904 27.6309 483.666 27.4355 483.51 27.209C483.357 26.9824 483.281 26.7129 483.281 26.4004C483.281 25.8809 483.5 25.4414 483.938 25.082C484.379 24.7227 484.941 24.543 485.625 24.543C486.344 24.543 486.926 24.7285 487.371 25.0996C487.82 25.4707 488.045 25.9453 488.045 26.5234H486.955C486.955 26.2266 486.828 25.9707 486.574 25.7559C486.324 25.541 486.008 25.4336 485.625 25.4336C485.23 25.4336 484.922 25.5195 484.699 25.6914C484.477 25.8633 484.365 26.0879 484.365 26.3652C484.365 26.627 484.469 26.8242 484.676 26.957C484.883 27.0898 485.256 27.2168 485.795 27.3379C486.338 27.459 486.777 27.6035 487.113 27.7715C487.449 27.9395 487.697 28.1426 487.857 28.3809C488.021 28.6152 488.104 28.9023 488.104 29.2422C488.104 29.8086 487.877 30.2637 487.424 30.6074C486.971 30.9473 486.383 31.1172 485.66 31.1172C485.152 31.1172 484.703 31.0273 484.312 30.8477C483.922 30.668 483.615 30.418 483.393 30.0977C483.174 29.7734 483.064 29.4238 483.064 29.0488H484.148C484.168 29.4121 484.312 29.7012 484.582 29.916C484.855 30.127 485.215 30.2324 485.66 30.2324C486.07 30.2324 486.398 30.1504 486.645 29.9863C486.895 29.8184 487.02 29.5957 487.02 29.3184ZM490.986 23.125V24.6602H492.17V25.498H490.986V29.4297C490.986 29.6836 491.039 29.875 491.145 30.0039C491.25 30.1289 491.43 30.1914 491.684 30.1914C491.809 30.1914 491.98 30.168 492.199 30.1211V31C491.914 31.0781 491.637 31.1172 491.367 31.1172C490.883 31.1172 490.518 30.9707 490.271 30.6777C490.025 30.3848 489.902 29.9688 489.902 29.4297V25.498H488.748V24.6602H489.902V23.125H490.986ZM503.145 31H502.014V27.0566H497.713V31H496.588V22.4688H497.713V26.1367H502.014V22.4688H503.145V31ZM510.451 31H504.861V30.2207L507.814 26.9395C508.252 26.4434 508.553 26.041 508.717 25.7324C508.885 25.4199 508.969 25.0977 508.969 24.7656C508.969 24.3203 508.834 23.9551 508.564 23.6699C508.295 23.3848 507.936 23.2422 507.486 23.2422C506.947 23.2422 506.527 23.3965 506.227 23.7051C505.93 24.0098 505.781 24.4355 505.781 24.9824H504.697C504.697 24.1973 504.949 23.5625 505.453 23.0781C505.961 22.5938 506.639 22.3516 507.486 22.3516C508.279 22.3516 508.906 22.5605 509.367 22.9785C509.828 23.3926 510.059 23.9453 510.059 24.6367C510.059 25.4766 509.523 26.4766 508.453 27.6367L506.168 30.1152H510.451V31Z" fill="black"/>
<path d="M124 226C124 281.5 124 281.5 274 281.5C394 281.5 412 281.5 412 226" stroke="black"/>
<defs>
<linearGradient id="paint0_linear_0_1" x1="123" y1="133.667" x2="123" y2="157" gradientUnits="userSpaceOnUse">
<stop stop-color="#2F80ED"/>
<stop offset="0.541667" stop-color="#F2F2F2"/>
<stop offset="1" stop-color="#6FCF97"/>
</linearGradient>
<linearGradient id="paint1_linear_0_1" x1="412" y1="133.667" x2="412" y2="157" gradientUnits="userSpaceOnUse">
<stop stop-color="#2F80ED"/>
<stop offset="0.541667" stop-color="#F2F2F2"/>
<stop offset="1" stop-color="#6FCF97"/>
</linearGradient>
</defs>
</svg>
